<svg xmlns="http://www.w3.org/2000/svg" viewBox="0 0 128 128" role="img" aria-label="C#">
  <rect width="128" height="128" rx="16" fill="#68217A"/>
  <path fill="#fff" d="M95.4 82.9c-2.4 4.1-5.8 7.3-10.2 9.6-4.4 2.3-9.5 3.5-15.2 3.5-8.2 0-14.9-2.6-20.1-7.9-5.2-5.3-7.8-12.3-7.8-21.1 0-8.8 2.6-15.8 7.8-21.1 5.2-5.3 11.9-7.9 20.1-7.9 5.7 0 10.8 1.2 15.2 3.5 4.4 2.3 7.8 5.5 10.2 9.6l-10.8 6.2c-3-5.2-7.5-7.8-13.5-7.8-4.8 0-8.7 1.7-11.7 5.1-3 3.4-4.5 8-4.5 13.8 0 5.8 1.5 10.4 4.5 13.8 3 3.4 6.9 5.1 11.7 5.1 6 0 10.5-2.6 13.5-7.8l10.8 6.2z"/>
  <path fill="#fff" d="M88.8 44.5h8.8v39h-8.8V44.5zm0 0"/>
  <path fill="#fff" d="M104.8 44.5h8.8l-12.2 19.5 12.4 19.5h-9l-7.4-12.5-7.2 12.5h-8.8l12.2-19.5-12.4-19.5h9l7.4 12.5 7.2-12.5z"/>
</svg>
