<svg xmlns="http://www.w3.org/2000/svg" viewBox="0 0 128 128" role="img" aria-label="PostgreSQL">
  <rect width="128" height="128" rx="16" fill="#336791"/>
  <path fill="#fff" d="M88 44c-2-8-8-12-16-12-6 0-11 3-14 8-8-1-15 2-19 9-5 8-3 18 4 24-1 4-1 8 1 12 3 6 9 10 16 10 7 0 13-4 16-10 2-4 2-8 1-12 7-6 9-16 4-24-4-7-11-10-19-9-3-5-8-8-14-8-8 0-14 4-16 12z"/>
  <circle cx="72" cy="58" r="4" fill="#336791"/>
  <path fill="#fff" opacity="0.9" d="M34 78c6 10 16 16 30 16s24-6 30-16c-4 8-13 14-30 14s-26-6-30-14z"/>
</svg>
