<svg xmlns="http://www.w3.org/2000/svg" viewBox="0 0 128 128" role="img" aria-label="SQLite">
  <rect width="128" height="128" rx="16" fill="#0F172A"/>
  <path fill="#44AADD" d="M64 24c-18 8-28 22-30 42-1 12 2 24 8 34 2-10 2-20 0-30-1-8-4-15-8-21 6-4 12-6 18-6 6 0 12 2 18 6-4 6-7 13-8 21-2 10-2 20 0 30 6-10 9-22 8-34-2-20-12-34-30-42z"/>
  <path fill="#97CFEF" d="M64 30c14 6 22 18 24 34 1 10-1 20-6 28 1-8 1-16 0-24-1-6-3-12-6-17 4-3 8-5 12-5s8 2 12 5c-3 5-5 11-6 17-1 8-1 16 0 24-5-8-7-18-6-28 2-16 10-28 24-34z"/>
</svg>
