<svg xmlns="http://www.w3.org/2000/svg" viewBox="0 0 128 128" role="img" aria-label="Tailwind CSS">
  <rect width="128" height="128" rx="16" fill="#0F172A"/>
  <path fill="#38BDF8" d="M64 28c-12.8 0-20.8 6.4-24 19.2 4.8-6.4 10.4-8.8 16.8-7.2 3.7.9 6.3 3.5 9.2 6.4 4.7 4.7 10.2 10.1 22 10.1 12.8 0 20.8-6.4 24-19.2-4.8 6.4-10.4 8.8-16.8 7.2-3.7-.9-6.3-3.5-9.2-6.4-4.7-4.7-10.2-10.1-22-10.1zM40 56c-12.8 0-20.8 6.4-24 19.2 4.8-6.4 10.4-8.8 16.8-7.2 3.7.9 6.3 3.5 9.2 6.4 4.7 4.7 10.2 10.1 22 10.1 12.8 0 20.8-6.4 24-19.2-4.8 6.4-10.4 8.8-16.8 7.2-3.7-.9-6.3-3.5-9.2-6.4-4.7-4.7-10.2-10.1-22-10.1z"/>
</svg>
