<svg xmlns="http://www.w3.org/2000/svg" viewBox="0 0 128 128" role="img" aria-label="Better SQLite">
  <rect width="128" height="128" rx="16" fill="#111827"/>
  <path fill="#60A5FA" d="M64 26c-16 7-25 20-27 38-1 11 2 21 7 30 2-9 2-18 0-27-1-7-4-14-8-19 5-4 11-6 17-6s12 2 17 6c-4 5-7 12-8 19-2 9-2 18 0 27 5-9 8-19 7-30-2-18-11-31-27-38z"/>
  <path fill="#93C5FD" d="M64 32c12 5 19 16 21 30 1 9-1 17-5 24 1-7 1-14 0-21-1-5-3-10-6-14 3-2 7-4 10-4s7 2 10 4c-3 4-5 9-6 14-1 7-1 14 0 21-4-7-6-15-5-24 2-14 9-25 21-30z"/>
  <path fill="#22C55E" d="M78 88h12l-8 12-8-12h8v-18h8v18z"/>
</svg>
